<svg width="1400" height="900" viewBox="0 0 1400 900" fill="none" xmlns="http://www.w3.org/2000/svg">
  <rect width="1400" height="900" fill="#091321"/>
  <rect x="44" y="44" width="1312" height="812" rx="36" fill="url(#bg)" stroke="rgba(153,198,255,0.16)"/>
  <rect x="92" y="96" width="1216" height="708" rx="28" fill="#0D1727" stroke="rgba(153,198,255,0.10)"/>
  <rect x="92" y="96" width="232" height="708" rx="28" fill="#0A1320"/>
  <rect x="128" y="152" width="120" height="18" rx="9" fill="#21364F"/>
  <rect x="128" y="212" width="160" height="12" rx="6" fill="#1A2A40"/>
  <rect x="128" y="246" width="136" height="12" rx="6" fill="#1A2A40"/>
  <rect x="128" y="280" width="154" height="12" rx="6" fill="#67CFFF" fill-opacity="0.35"/>
  <rect x="128" y="314" width="140" height="12" rx="6" fill="#1A2A40"/>
  <rect x="128" y="348" width="116" height="12" rx="6" fill="#1A2A40"/>
  <rect x="378" y="154" width="430" height="40" rx="14" fill="#13253A"/>
  <rect x="824" y="154" width="196" height="40" rx="14" fill="#13253A"/>
  <rect x="1040" y="154" width="214" height="40" rx="14" fill="#13253A"/>
  <rect x="378" y="236" width="430" height="438" rx="28" fill="#101C2D" stroke="rgba(153,198,255,0.10)"/>
  <rect x="852" y="236" width="402" height="206" rx="28" fill="#101C2D" stroke="rgba(153,198,255,0.10)"/>
  <rect x="852" y="468" width="402" height="206" rx="28" fill="#101C2D" stroke="rgba(153,198,255,0.10)"/>
  <rect x="438" y="292" width="310" height="24" rx="12" fill="#EAF4FF"/>
  <rect x="438" y="336" width="190" height="14" rx="7" fill="#7A92B2"/>
  <rect x="438" y="402" width="310" height="64" rx="18" fill="#0B1524" stroke="rgba(153,198,255,0.12)"/>
  <rect x="438" y="486" width="310" height="64" rx="18" fill="#0B1524" stroke="rgba(153,198,255,0.12)"/>
  <rect x="438" y="570" width="310" height="60" rx="18" fill="#67CFFF"/>
  <rect x="904" y="288" width="156" height="20" rx="10" fill="#EAF4FF"/>
  <rect x="904" y="334" width="288" height="14" rx="7" fill="#7A92B2"/>
  <rect x="904" y="372" width="228" height="14" rx="7" fill="#7A92B2"/>
  <rect x="904" y="520" width="132" height="20" rx="10" fill="#EAF4FF"/>
  <rect x="904" y="566" width="296" height="14" rx="7" fill="#7A92B2"/>
  <rect x="904" y="604" width="254" height="14" rx="7" fill="#7A92B2"/>
  <circle cx="1102" cy="340" r="72" fill="#0B1524" stroke="rgba(103,207,255,0.28)"/>
  <circle cx="1102" cy="340" r="46" fill="#67CFFF" fill-opacity="0.16"/>
  <path d="M1086 340L1098 352L1122 328" stroke="#67CFFF" stroke-width="10" stroke-linecap="round" stroke-linejoin="round"/>
  <circle cx="1102" cy="572" r="72" fill="#0B1524" stroke="rgba(103,207,255,0.28)"/>
  <path d="M1102 538V606" stroke="#67CFFF" stroke-width="10" stroke-linecap="round"/>
  <path d="M1068 572H1136" stroke="#67CFFF" stroke-width="10" stroke-linecap="round"/>
  <defs>
    <linearGradient id="bg" x1="80" y1="60" x2="1294" y2="832" gradientUnits="userSpaceOnUse">
      <stop stop-color="#0D1B2D"/>
      <stop offset="1" stop-color="#09111D"/>
    </linearGradient>
  </defs>
</svg>
